<svg xmlns="http://www.w3.org/2000/svg" width="36" height="36" viewBox="0 0 27 27" xmlns:v="https://vecta.io/nano"><defs><linearGradient id="A" gradientUnits="userSpaceOnUse" x1="1.333" y1="27" x2="52.333" y2="27"><stop offset="0" stop-color="rgb(12.941176%,21.176471%,49.803922%)"/><stop offset=".289" stop-color="rgb(9.803922%,30.588235%,56.862745%)"/><stop offset=".896" stop-color="rgb(1.960784%,54.509804%,75.294118%)"/><stop offset=".995" stop-color="rgb(0.784314%,58.823529%,78.431373%)"/></linearGradient></defs><path d="M52.327 27c0 14.086-11.414 25.5-25.5 25.5-14.078 0-25.5-11.414-25.5-25.5s11.422-25.5 25.5-25.5c14.086 0 25.5 11.414 25.5 25.5zm0 0" transform="matrix(.5 0 0 .5 .0825 0)" fill="url(#A)" stroke="rgb(12.941176%,21.176471%,49.803922%)" stroke-miterlimit="10"/><path d="M12.238 18.5h2.016v-5.039h1.402l.152-1.691h-1.555v-.961c0-.398.078-.555.465-.555h1.09V8.5h-1.395c-1.5 0-2.176.66-2.176 1.926v1.344h-1.047v1.711h1.047zm0 0" fill="rgb(100%,100%,100%)"/></svg>