<svg xmlns="http://www.w3.org/2000/svg" width="36" height="36" viewBox="0 0 27 27" xmlns:v="https://vecta.io/nano"><defs><linearGradient id="A" gradientUnits="userSpaceOnUse" x1="1.333" y1="27" x2="52.333" y2="27"><stop offset="0" stop-color="rgb(12.941176%,21.176471%,49.803922%)"/><stop offset=".289" stop-color="rgb(9.803922%,30.588235%,56.862745%)"/><stop offset=".896" stop-color="rgb(1.960784%,54.509804%,75.294118%)"/><stop offset=".995" stop-color="rgb(0.784314%,58.823529%,78.431373%)"/></linearGradient></defs><path d="M52.327 27c0 14.086-11.414 25.5-25.5 25.5-14.078 0-25.5-11.414-25.5-25.5s11.422-25.5 25.5-25.5c14.086 0 25.5 11.414 25.5 25.5zm0 0" transform="matrix(.5 0 0 .5 .0825 0)" fill="url(#A)" stroke="rgb(12.941176%,21.176471%,49.803922%)" stroke-miterlimit="10"/><path d="M14.938 13.199H10.29l.004 1.332h3.133c-.367 1.617-1.512 2.613-3.047 2.613a3.65 3.65 0 0 1-3.652-3.648c0-2.016 1.637-3.652 3.652-3.652a3.63 3.63 0 0 1 2.48.977l1.027-.887c-.902-.883-2.141-1.434-3.508-1.434a5 5 0 1 0 0 10c2.648 0 4.57-2.023 4.57-4.785zm6.683.055h-1.918v-1.918h-1.227v1.918h-1.918v1.227h1.918v1.918h1.227V14.48h1.918zm0 0" fill="rgb(100%,100%,100%)"/></svg>