<svg xmlns="http://www.w3.org/2000/svg" viewBox="0 0 44.31 42.6" xmlns:v="https://vecta.io/nano"><defs><linearGradient id="A" x1="22.16" y1="2.85" x2="22.16" y2="40.26" gradientUnits="userSpaceOnUse"><stop offset="0" stop-color="#cdac2c"/><stop offset=".42" stop-color="#ddc42f"/><stop offset="1" stop-color="#f7ec33"/></linearGradient></defs><circle cx="22.16" cy="21.3" r="20" stroke="#cdac2c" stroke-width="2" fill="url(#A)"/><path d="M22.16 14.87l3.17.05a4.1 4.1 0 0 1 1.45.27 2.37 2.37 0 0 1 .9.58 2.43 2.43 0 0 1 .59.9 4.23 4.23 0 0 1 .27 1.46l.05 3.17-.05 3.17a4.23 4.23 0 0 1-.27 1.46 2.43 2.43 0 0 1-.59.9 2.37 2.37 0 0 1-.9.58 4.1 4.1 0 0 1-1.45.27l-3.17.05c-2.09 0-2.34 0-3.17-.05a4.17 4.17 0 0 1-1.46-.27 2.45 2.45 0 0 1-.9-.58 2.7 2.7 0 0 1-.59-.9 4.78 4.78 0 0 1-.27-1.46V21.3v-3.17a4.78 4.78 0 0 1 .23-1.46 2.7 2.7 0 0 1 .59-.9 2.45 2.45 0 0 1 .9-.58 4.17 4.17 0 0 1 1.51-.27l3.17-.05m0-1.41h-3.24a5.64 5.64 0 0 0-1.9.37 3.91 3.91 0 0 0-1.39.9 3.86 3.86 0 0 0-.9 1.39 5.65 5.65 0 0 0-.37 1.91v3.23 3.23a5.65 5.65 0 0 0 .37 1.91 3.86 3.86 0 0 0 .9 1.39 3.91 3.91 0 0 0 1.39.9 5.64 5.64 0 0 0 1.9.37h3.24 3.23a5.54 5.54 0 0 0 1.9-.37 3.82 3.82 0 0 0 1.39-.9 3.89 3.89 0 0 0 .91-1.39 5.68 5.68 0 0 0 .4-1.87l.05-3.23-.05-3.23a5.68 5.68 0 0 0-.36-1.91 3.89 3.89 0 0 0-.91-1.39 3.82 3.82 0 0 0-1.39-.9 5.54 5.54 0 0 0-1.9-.37h-3.23m-.05 3.77a4 4 0 1 0 4 4 4 4 0 0 0-4-4m0 6.64a2.61 2.61 0 1 1 2.61-2.61 2.61 2.61 0 0 1-2.61 2.61m5.13-6.8a.95.95 0 1 1-.95-.94.95.95 0 0 1 .95.94" fill="#273a7e"/></svg>