<svg xmlns="http://www.w3.org/2000/svg" width="36" height="36" viewBox="0 0 27 27" xmlns:v="https://vecta.io/nano"><defs><linearGradient id="A" gradientUnits="userSpaceOnUse" x1="1.333" y1="27" x2="52.333" y2="27"><stop offset="0" stop-color="rgb(12.941176%,21.176471%,49.803922%)"/><stop offset=".289" stop-color="rgb(9.803922%,30.588235%,56.862745%)"/><stop offset=".896" stop-color="rgb(1.960784%,54.509804%,75.294118%)"/><stop offset=".995" stop-color="rgb(0.784314%,58.823529%,78.431373%)"/></linearGradient></defs><path d="M52.327 27c0 14.086-11.414 25.5-25.5 25.5-14.078 0-25.5-11.414-25.5-25.5s11.422-25.5 25.5-25.5c14.086 0 25.5 11.414 25.5 25.5zm0 0" transform="matrix(.5 0 0 .5 .0825 0)" fill="url(#A)" stroke="rgb(12.941176%,21.176471%,49.803922%)" stroke-miterlimit="10"/><g fill="rgb(100%,100%,100%)"><path d="M13.496 9.398l2.02.031a2.83 2.83 0 0 1 .934.172c.234.09.398.199.574.375s.285.34.375.574c.07.176.148.438.168.93l.031 2.02-.031 2.02c-.02.492-.105.75-.168.93-.09.234-.199.402-.375.574s-.34.285-.574.375c-.176.07-.441.152-.934.172l-2.02.031c-1.332 0-1.492-.008-2.02-.031a2.8 2.8 0 0 1-.93-.172c-.234-.09-.398-.199-.574-.375s-.285-.34-.375-.574c-.07-.176-.148-.437-.172-.93l-.027-2.02.027-2.02c.023-.492.105-.75.172-.93.09-.234.199-.402.375-.574s.34-.285.574-.375c.176-.07.441-.152.93-.172l2.02-.031m0-.898l-2.059.031c-.531.023-.895.109-1.215.23-.332.129-.609.297-.887.574s-.449.555-.574.883c-.125.32-.211.68-.23 1.215l-.027 2.063.027 2.059c.027.531.109.895.23 1.215a2.49 2.49 0 0 0 .574.887 2.42 2.42 0 0 0 .887.574c.32.125.68.211 1.215.23l2.059.027 2.063-.027c.527-.027.895-.109 1.215-.23.328-.129.609-.301.883-.574a2.4 2.4 0 0 0 .578-.887c.125-.32.207-.68.227-1.215l.031-2.059-.031-2.062c-.023-.527-.109-.895-.227-1.215-.133-.328-.301-.609-.578-.883s-.555-.449-.883-.574c-.32-.125-.68-.211-1.215-.23L13.496 8.5"/><path d="M13.496 10.934c-1.418 0-2.57 1.152-2.57 2.57a2.571 2.571 0 1 0 5.141 0c0-1.426-1.148-2.57-2.57-2.57m0 4.23c-.918 0-1.664-.742-1.664-1.664s.746-1.664 1.664-1.664 1.668.742 1.668 1.664-.746 1.664-1.668 1.664m3.269-4.336a.6.6 0 1 1-1.2 0 .6.6 0 0 1 1.2 0"/></g></svg>