<svg xmlns="http://www.w3.org/2000/svg" viewBox="0 0 44.31 42.6" xmlns:v="https://vecta.io/nano"><defs><linearGradient id="A" x1="22.16" y1="2.85" x2="22.16" y2="40.26" gradientUnits="userSpaceOnUse"><stop offset="0" stop-color="#cdac2c"/><stop offset=".42" stop-color="#ddc42f"/><stop offset="1" stop-color="#f7ec33"/></linearGradient></defs><circle cx="22.16" cy="21.3" r="20" stroke="#cdac2c" stroke-width="2" fill="url(#A)"/><path d="M14.63 18.69h3.24v10.46h-3.24zm1.6-1.37a1.93 1.93 0 1 0-1.91-1.93 1.93 1.93 0 0 0 1.91 1.93zM23 23.65c0-1.47.68-2.34 2-2.34s1.77.84 1.77 2.34v5.49H30v-6.62c0-2.8-1.59-4.15-3.81-4.15A3.64 3.64 0 0 0 23 20.09v-1.4h-3.1v10.45H23z" fill="#273a7e"/></svg>