<svg xmlns="http://www.w3.org/2000/svg" width="36" height="36" viewBox="0 0 27 27" xmlns:v="https://vecta.io/nano"><defs><linearGradient id="A" gradientUnits="userSpaceOnUse" x1="1.333" y1="27" x2="52.333" y2="27"><stop offset="0" stop-color="rgb(12.941176%,21.176471%,49.803922%)"/><stop offset=".289" stop-color="rgb(9.803922%,30.588235%,56.862745%)"/><stop offset=".896" stop-color="rgb(1.960784%,54.509804%,75.294118%)"/><stop offset=".995" stop-color="rgb(0.784314%,58.823529%,78.431373%)"/></linearGradient></defs><path d="M52.327 27c0 14.086-11.414 25.5-25.5 25.5-14.078 0-25.5-11.414-25.5-25.5s11.422-25.5 25.5-25.5c14.086 0 25.5 11.414 25.5 25.5zm0 0" transform="matrix(.5 0 0 .5 .0825 0)" fill="url(#A)" stroke="rgb(12.941176%,21.176471%,49.803922%)" stroke-miterlimit="10"/><path d="M8.699 11.836h2.063V18.5H8.699zm1.024-.875c.676 0 1.219-.551 1.219-1.23S10.398 8.5 9.723 8.5s-1.219.551-1.219 1.23.543 1.23 1.219 1.23zM14.063 15c0-.934.43-1.496 1.254-1.496.762 0 1.125.535 1.125 1.496v3.5h2.055v-4.219c0-1.785-1.008-2.652-2.422-2.652s-2.012 1.102-2.012 1.102v-.902h-1.98V18.5h1.98V15zm0 0" fill="rgb(100%,100%,100%)"/></svg>