<svg xmlns="http://www.w3.org/2000/svg" width="29.333" height="29.333" viewBox="0 0 22 22" xmlns:v="https://vecta.io/nano"><defs><linearGradient id="A" gradientUnits="userSpaceOnUse" x1=".974" y1="11.041" x2="21.154" y2="11.041"><stop offset="0" stop-color="rgb(12.941176%,21.176471%,49.803922%)"/><stop offset=".289" stop-color="rgb(9.803922%,30.588235%,56.862745%)"/><stop offset=".896" stop-color="rgb(1.960784%,54.509804%,75.294118%)"/><stop offset=".995" stop-color="rgb(0.784314%,58.823529%,78.431373%)"/></linearGradient></defs><path d="M18.723 20.832H.973V1.25h17.75c1.344 0 2.43 1.117 2.43 2.488v14.609c0 1.371-1.086 2.484-2.43 2.484zm0 0" fill="url(#A)"/><path d="M17.547 16.445l-3.492-3.574c.703-.906 1.121-2.047 1.121-3.289 0-2.938-2.328-5.316-5.195-5.316s-5.191 2.387-5.191 5.32 2.328 5.313 5.195 5.313c1.105 0 2.129-.355 2.973-.961l3.52 3.602a.74.74 0 0 0 1.07 0c.297-.301.297-.789 0-1.094zM6.09 9.586c0-2.203 1.742-3.984 3.895-3.984s3.898 1.781 3.898 3.984-1.746 3.984-3.898 3.984S6.09 11.785 6.09 9.586zm0 0" fill="rgb(100%,100%,100%)"/></svg>