<svg xmlns="http://www.w3.org/2000/svg" viewBox="0 0 41.67 39.67" xmlns:v="https://vecta.io/nano"><linearGradient id="A" gradientUnits="userSpaceOnUse" x1=".117" y1="19.833" x2="41.549" y2="19.833"><stop offset="0" stop-color="#21367f"/><stop offset=".289" stop-color="#194e91"/><stop offset=".896" stop-color="#058bc0"/><stop offset=".995" stop-color="#0296c8"/></linearGradient><path d="M36.56 39.49H.12V.18h36.44c2.76 0 4.99 2.24 4.99 4.99V34.5a5 5 0 0 1-4.99 4.99z" fill="url(#A)"/><path d="M34.15 30.68l-7.17-7.17c1.44-1.82 2.3-4.11 2.3-6.61 0-5.89-4.78-10.67-10.67-10.67S7.95 11.02 7.95 16.91s4.78 10.67 10.67 10.67c2.27 0 4.37-.72 6.1-1.93l7.23 7.23a1.55 1.55 0 1 0 2.2-2.2zM10.62 16.91a8 8 0 0 1 16 0 8 8 0 1 1-16 0z" fill="#fff"/></svg>