<svg xmlns="http://www.w3.org/2000/svg" viewBox="0 0 94.83 63.17" xmlns:v="https://vecta.io/nano"><path d="M78.73,39H89.39v5.27q0,8-3.26,11.7c-2.18,2.45-5.72,3.68-10.65,3.68q-6.95,0-9.76-4.31t-2.8-11.9a19,19,0,0,1,.95-6.39,18.46,18.46,0,0,1,.82-1.92L77,22.84l4,3.35,1.18-14.54L67.94,15.21,72.44,19l-1.68,1.68H63.29q0-8.06,3.11-12T76.92,4.75q6.08,0,9.27,3.62t3.2,10.51q0,6.59-5.42,11.7l-4.84,4.6a35.4,35.4,0,0,0-3.36,3.53,9.61,9.61,0,0,0-1.7,3.19,15.22,15.22,0,0,0-.49,4.15,5.27,5.27,0,0,0,.57,2.82,2.27,2.27,0,0,0,2,.86,2,2,0,0,0,2-1.06,6.2,6.2,0,0,0,.57-2.92ZM44.35,26.48V14.68h1.19a4,4,0,0,1,2.93.78q.72.78.72,3.48v7L59,32.5l1-1V17.93q0-6.23-2.94-9.46T48.33,5.24H33.5V35.1Zm15.3,13.73-10.46-7V46.76q0,2.88-3,2.88H44.35v-15L33.5,43V59.17H48q6.72,0,9.39-4.17T60,43.17V39.82Z" fill="#ffd41f"/><path d="M4.52,18.27q0-6.9,3.2-10.51T17,4.14q7.41,0,10.52,4t3.11,12h-11V16.4A2.28,2.28,0,0,0,19,14.68a2.33,2.33,0,0,0-1.7-.61,2.32,2.32,0,0,0-1.89.72,2.8,2.8,0,0,0-.6,1.85,5.79,5.79,0,0,0,.62,2.45,10.88,10.88,0,0,0,2.42,3l6.22,6a37.71,37.71,0,0,1,3.43,3.75A16.27,16.27,0,0,1,30,36.45c.08.2.14.41.21.63L20.32,45a14.55,14.55,0,0,0-.48-3.68,9.61,9.61,0,0,0-1.7-3.19,35.4,35.4,0,0,0-3.36-3.53L9.94,30Q4.53,24.85,4.52,18.27Zm8.4,40.12a21.17,21.17,0,0,0,5.51.66q7,0,9.76-4.31Q30.7,50.89,31,44.38Zm3.07-10a2.25,2.25,0,0,1-.24-.36,6.2,6.2,0,0,1-.57-2.92V38.4H4.52v5.27q0,7.76,3.05,11.44ZM44.73,26.17V5.24H33.5V35.1ZM33.5,43V59.17H44.73V34.29Z" fill="#fff"/></svg>